<svg xmlns="http://www.w3.org/2000/svg" viewBox="0 0 256 256">
  <rect width="256" height="256" fill="none"/>
  <circle cx="128" cy="128" r="120" fill="#2563eb" opacity="0.1"/>
  <path d="M128,24A104,104,0,1,0,232,128,104.11,104.11,0,0,0,128,24Zm0,192a88,88,0,1,1,88-88A88.1,88.1,0,0,1,128,216Z" fill="#3b82f6"/>
  <path d="M176,120H136V80a8,8,0,0,0-16,0v40H80a8,8,0,0,0,0,16h40v40a8,8,0,0,0,16,0V136h40a8,8,0,0,0,0-16Z" fill="#2563eb"/>
  <path d="M128,64a64,64,0,1,0,64,64A64.07,64.07,0,0,0,128,64Zm0,112a48,48,0,1,1,48-48A48.05,48.05,0,0,1,128,176Z" fill="#60a5fa" opacity="0.5"/>
</svg>
